<?xml version="1.0" encoding="UTF-8"?>
<svg version="1.1" xmlns="http://www.w3.org/2000/svg" width="32" height="32">
<path d="M0 0 C-1.47036031 5.23537382 -3.05567468 10.43732746 -4.875 15.5625 C-5.16117188 16.38878906 -5.44734375 17.21507813 -5.7421875 18.06640625 C-7 20 -7 20 -9.50390625 20.7109375 C-10.73947266 20.85402344 -10.73947266 20.85402344 -12 21 C-12.680625 21.350625 -13.36125 21.70125 -14.0625 22.0625 C-16 23 -16 23 -20 23 C-20.5775 22.236875 -21.155 21.47375 -21.75 20.6875 C-24.80492351 17.03856359 -27.50493545 16.42343711 -32 15 C-32 14.34 -32 13.68 -32 13 C-27.76617685 11.14395269 -23.53031693 9.29266634 -19.29248047 7.44580078 C-17.85050087 6.81657923 -16.40909103 6.18605033 -14.96826172 5.55419922 C-12.89958997 4.64728669 -10.82892849 3.74506405 -8.7578125 2.84375 C-8.11192169 2.55939087 -7.46603088 2.27503174 -6.80056763 1.98205566 C-2.22774341 0 -2.22774341 0 0 0 Z " fill="#FECD52" transform="translate(32,4)"/>
<path d="M0 0 C0.66 0.33 1.32 0.66 2 1 C-0.31 2.98 -2.62 4.96 -5 7 C-4.1469752 10.4120992 -3.13357275 13.67485327 -2 17 C-3.1446875 16.9071875 -3.1446875 16.9071875 -4.3125 16.8125 C-7.04525312 16.74101915 -7.04525312 16.74101915 -8.8125 18.5 C-9.204375 18.995 -9.59625 19.49 -10 20 C-12.80549222 18.85702169 -14.28506374 17.70762693 -16.4375 15.5 C-18.95063538 13.0481606 -20.69600416 12.03839869 -24 11 C-20.73925997 8.82617331 -18.63018265 8.44819284 -14.8125 7.75 C-8.64430305 6.41838701 -4.5884248 4.28345397 0 0 Z " fill="#EDAD37" transform="translate(25,8)"/>
<path d="M0 0 C4.42857143 5.14285714 4.42857143 5.14285714 5 9 C1.44219804 8.39009109 -1.6828589 7.4216319 -5 6 C-3.35 4.02 -1.7 2.04 0 0 Z " fill="#F5BA42" transform="translate(18,16)"/>
<path d="M0 0 C-2.19375144 1.98704538 -4.3279246 3.70522987 -7 5 C-10.9375 4.3125 -10.9375 4.3125 -14 3 C-11.20387283 1.13591522 -9.62830652 0.51163882 -6.4375 -0.1875 C-5.65246094 -0.36667969 -4.86742187 -0.54585937 -4.05859375 -0.73046875 C-2 -1 -2 -1 0 0 Z " fill="#F6BC43" transform="translate(15,16)"/>
<path d="M0 0 C2.475 0.495 2.475 0.495 5 1 C4.34 2.32 3.68 3.64 3 5 C2.01 4.67 1.02 4.34 0 4 C0 2.68 0 1.36 0 0 Z " fill="#E19F33" transform="translate(13,22)"/>
</svg>
